<svg xmlns="http://www.w3.org/2000/svg" xmlns:xlink="http://www.w3.org/1999/xlink" viewBox="0 0 355.43 358.13"><defs><style>.cls-1{fill:#231f20;}.cls-2{fill:#bff734;}.cls-3{fill:#578e23;}.cls-4{fill:#d7eef4;}.cls-5{fill:#acbdc1;}.cls-6{fill:#f94c00;}.cls-7{fill:#a82f00;}.cls-8{fill:#f1f2f2;}.cls-9{fill:#bcbec0;}.cls-10{fill:#fff;}.cls-11{fill:url(#linear-gradient);}.cls-12{fill:url(#linear-gradient-2);}.cls-13{fill:url(#linear-gradient-3);}.cls-14{fill:url(#linear-gradient-4);}.cls-15{fill:url(#linear-gradient-5);}.cls-16{fill:url(#linear-gradient-6);}.cls-17{fill:url(#linear-gradient-7);}.cls-18{fill:url(#linear-gradient-8);}.cls-19{fill:url(#linear-gradient-9);}.cls-20{fill:url(#linear-gradient-10);}.cls-21{fill:url(#linear-gradient-11);}.cls-22{fill:url(#linear-gradient-12);}.cls-23{fill:url(#linear-gradient-13);}.cls-24{fill:url(#linear-gradient-14);}.cls-25{fill:url(#linear-gradient-15);}.cls-26{fill:url(#linear-gradient-16);}.cls-27{fill:url(#linear-gradient-17);}.cls-28{fill:url(#linear-gradient-18);}.cls-29{fill:url(#linear-gradient-19);}.cls-30{fill:url(#linear-gradient-20);}.cls-31{fill:url(#linear-gradient-23);}.cls-32{fill:url(#linear-gradient-24);}.cls-33{fill:url(#linear-gradient-25);}.cls-34{fill:url(#linear-gradient-26);}.cls-35{fill:url(#linear-gradient-27);}.cls-36{fill:url(#linear-gradient-28);}.cls-37{fill:url(#linear-gradient-29);}.cls-38{fill:url(#linear-gradient-30);}</style><linearGradient id="linear-gradient" x1="77.94" y1="285.12" x2="77.94" y2="111.76" gradientTransform="translate(10.52 -27.43) rotate(5.33)" gradientUnits="userSpaceOnUse"><stop offset="0.32" stop-color="#cafe00"/><stop offset="0.65" stop-color="#ff4d00"/></linearGradient><linearGradient id="linear-gradient-2" x1="73" y1="285.12" x2="73" y2="111.76" xlink:href="#linear-gradient"/><linearGradient id="linear-gradient-3" x1="70.34" y1="285.12" x2="70.34" y2="111.76" xlink:href="#linear-gradient"/><linearGradient id="linear-gradient-4" x1="132.62" y1="285.13" x2="132.62" y2="111.77" xlink:href="#linear-gradient"/><linearGradient id="linear-gradient-5" x1="133.94" y1="285.1" x2="133.94" y2="111.78" xlink:href="#linear-gradient"/><linearGradient id="linear-gradient-6" x1="131.45" y1="285.12" x2="131.45" y2="111.78" xlink:href="#linear-gradient"/><linearGradient id="linear-gradient-7" x1="163.92" y1="285.12" x2="163.92" y2="111.77" xlink:href="#linear-gradient"/><linearGradient id="linear-gradient-8" x1="210.38" y1="285.12" x2="210.38" y2="111.78" xlink:href="#linear-gradient"/><linearGradient id="linear-gradient-9" x1="213.17" y1="285.12" x2="213.17" y2="111.78" xlink:href="#linear-gradient"/><linearGradient id="linear-gradient-10" x1="207.24" y1="285.13" x2="207.24" y2="111.77" xlink:href="#linear-gradient"/><linearGradient id="linear-gradient-11" x1="201.09" y1="285.15" x2="201.09" y2="111.74" xlink:href="#linear-gradient"/><linearGradient id="linear-gradient-12" x1="281.47" y1="285.12" x2="281.47" y2="111.78" xlink:href="#linear-gradient"/><linearGradient id="linear-gradient-13" x1="291.02" y1="285.14" x2="291.02" y2="111.78" xlink:href="#linear-gradient"/><linearGradient id="linear-gradient-14" x1="268.57" y1="285.13" x2="268.57" y2="111.78" xlink:href="#linear-gradient"/><linearGradient id="linear-gradient-15" x1="295.27" y1="285.13" x2="295.27" y2="111.78" xlink:href="#linear-gradient"/><linearGradient id="linear-gradient-16" x1="282.31" y1="285.12" x2="282.31" y2="111.8" xlink:href="#linear-gradient"/><linearGradient id="linear-gradient-17" x1="287.58" y1="285.13" x2="287.58" y2="111.79" xlink:href="#linear-gradient"/><linearGradient id="linear-gradient-18" x1="316.15" y1="285.13" x2="316.15" y2="111.79" xlink:href="#linear-gradient"/><linearGradient id="linear-gradient-19" x1="125.2" y1="285.12" x2="125.2" y2="111.77" xlink:href="#linear-gradient"/><linearGradient id="linear-gradient-20" x1="82.39" y1="285.12" x2="82.39" y2="111.77" xlink:href="#linear-gradient"/><linearGradient id="linear-gradient-23" x1="82.39" y1="285.11" x2="82.39" y2="111.77" xlink:href="#linear-gradient"/><linearGradient id="linear-gradient-24" x1="90.85" y1="285.12" x2="90.85" y2="111.77" xlink:href="#linear-gradient"/><linearGradient id="linear-gradient-25" x1="151.08" y1="285.13" x2="151.08" y2="111.77" xlink:href="#linear-gradient"/><linearGradient id="linear-gradient-26" x1="219.49" y1="285.13" x2="219.49" y2="111.77" xlink:href="#linear-gradient"/><linearGradient id="linear-gradient-27" x1="292.89" y1="285.14" x2="292.89" y2="111.74" xlink:href="#linear-gradient"/><linearGradient id="linear-gradient-28" x1="273.95" y1="285.16" x2="273.95" y2="111.76" xlink:href="#linear-gradient"/><linearGradient id="linear-gradient-29" x1="69.06" y1="285.12" x2="69.06" y2="111.77" xlink:href="#linear-gradient"/><linearGradient id="linear-gradient-30" x1="44.92" y1="285.12" x2="44.92" y2="111.77" xlink:href="#linear-gradient"/></defs><g id="Layer_2" data-name="Layer 2"><g id="Layer_4" data-name="Layer 4"><path class="cls-1" d="M255.55,83.89a3.21,3.21,0,0,0-4.38,1.19l-10.51,18.37L229.43,92l0,0a5.17,5.17,0,0,0-.62-.52,4.92,4.92,0,1,0-5.77,8l16.24,11.75.24.17.29.18a3.18,3.18,0,0,0,4.36-1.19l12.61-22A3.21,3.21,0,0,0,255.55,83.89Z"/><path class="cls-1" d="M240.4,112.77h0a4.41,4.41,0,0,1-1.11-.43,2.92,2.92,0,0,1-.37-.24l-16.48-11.92a5.89,5.89,0,1,1,6.9-9.54,5.43,5.43,0,0,1,.73.62l.05,0,10.34,10.55,9.88-17.26a4.19,4.19,0,0,1,4.58-2,4.06,4.06,0,0,1,1.11.43,4.19,4.19,0,0,1,1.55,5.7l-12.61,22A4.17,4.17,0,0,1,240.4,112.77ZM226.8,91.55a4,4,0,0,0-3.24,7.07l16.49,11.92.2.12a2,2,0,0,0,.59.24h0a2.25,2.25,0,0,0,2.46-1.06l12.61-22a2.24,2.24,0,0,0-.84-3.06,2,2,0,0,0-.59-.24A2.25,2.25,0,0,0,252,85.56L241.5,103.93a.93.93,0,0,1-.71.47,1,1,0,0,1-.82-.28L228.74,92.66l-.05,0a4.91,4.91,0,0,0-.48-.41A3.94,3.94,0,0,0,226.8,91.55Z"/><polygon class="cls-2" points="149.63 60.63 271.26 38.51 273.8 82.44 155.09 101.52 149.63 60.63"/><path class="cls-1" d="M154.87,102.45a.86.86,0,0,1-.35-.16.92.92,0,0,1-.38-.64l-5.46-40.89a1,1,0,0,1,.78-1.08L271.1,37.56a1,1,0,0,1,.76.19.93.93,0,0,1,.36.7l2.54,43.94a1,1,0,0,1-.81,1L155.24,102.47A.93.93,0,0,1,154.87,102.45Zm-4.16-41,5.21,39L272.79,81.63l-2.43-42Z"/><polygon class="cls-3" points="281.22 51.21 271.26 38.51 273.8 82.44 281.92 84.38 281.22 51.21"/><path class="cls-1" d="M281.7,85.31l-8.12-1.93a1,1,0,0,1-.74-.88L270.3,38.56a1,1,0,0,1,1.72-.65l10,12.71a1,1,0,0,1,.21.57l.69,33.17a1,1,0,0,1-1.18,1Zm-7-3.64,6.21,1.48-.66-31.6-7.87-10Z"/><path class="cls-1" d="M251.49,82.94c-7-1.66-12.31-9.41-12.66-18.43a22.15,22.15,0,0,1,3.83-13.76c2.73-3.83,6.49-6,10.6-6.19a12.28,12.28,0,0,1,3.31.32c7,1.66,12.31,9.41,12.67,18.42a22.23,22.23,0,0,1-3.84,13.77,13.68,13.68,0,0,1-10.6,6.19A12.28,12.28,0,0,1,251.49,82.94Zm4.64-36.18a10.54,10.54,0,0,0-2.79-.28,11.82,11.82,0,0,0-9.11,5.39,20.26,20.26,0,0,0-3.48,12.57c.33,8.17,5,15.16,11.18,16.62a10.54,10.54,0,0,0,2.79.28A11.85,11.85,0,0,0,263.84,76a20.32,20.32,0,0,0,3.47-12.57C267,55.21,262.28,48.22,256.13,46.76Z"/><path class="cls-1" d="M266.09,63.68c-.31-7.74-4.87-14.39-10.85-15.81a10.09,10.09,0,0,0-2.84-.29,11.69,11.69,0,0,0-9.05,5.3,19,19,0,0,0-3.3,11.85c.31,7.74,4.87,14.41,10.85,15.83a10.38,10.38,0,0,0,2.84.27,11.7,11.7,0,0,0,9.05-5.3A19.25,19.25,0,0,0,266.09,63.68Zm-4.36,11.11a10.48,10.48,0,0,1-8.05,4.77,9.81,9.81,0,0,1-2.48-.25c-5.43-1.3-9.58-7.44-9.88-14.64a17.89,17.89,0,0,1,3.06-11,10.41,10.41,0,0,1,8.08-4.75,8.76,8.76,0,0,1,2.49.22c5.42,1.29,9.57,7.46,9.85,14.64A17.67,17.67,0,0,1,261.73,74.79Z"/><path class="cls-3" d="M261.73,74.79a10.48,10.48,0,0,1-8.05,4.77,9.81,9.81,0,0,1-2.48-.25c-5.43-1.3-9.58-7.44-9.88-14.64a17.89,17.89,0,0,1,3.06-11,10.41,10.41,0,0,1,8.08-4.75,8.76,8.76,0,0,1,2.49.22c5.42,1.29,9.57,7.46,9.85,14.64A17.67,17.67,0,0,1,261.73,74.79Z"/><path class="cls-2" d="M252.66,56.82c4.12-.89,6.72,3.46,7,7s-2.19,8.49-6.42,7.9a6,6,0,0,0,3.31-2.61,9,9,0,0,0,1.2-4.87,9.23,9.23,0,0,0-1.35-4.71A6.1,6.1,0,0,0,252.66,56.82Z"/><path class="cls-1" d="M166.62,96.51c-6.57-1.56-11.39-8.57-11.73-17.06a20.56,20.56,0,0,1,3.55-12.74A12.73,12.73,0,0,1,168.28,61a11,11,0,0,1,3.07.29c6.57,1.57,11.39,8.58,11.73,17.06a20.55,20.55,0,0,1-3.55,12.74,12.7,12.7,0,0,1-9.83,5.74A11.43,11.43,0,0,1,166.62,96.51Zm4.28-33.36a9.52,9.52,0,0,0-2.55-.25A10.85,10.85,0,0,0,160,67.83a18.61,18.61,0,0,0-3.19,11.55c.29,7.5,4.61,13.92,10.25,15.26a9.16,9.16,0,0,0,2.55.24A10.78,10.78,0,0,0,178,90a18.58,18.58,0,0,0,3.2-11.54C180.86,70.91,176.55,64.49,170.9,63.15Z"/><path class="cls-1" d="M180.22,78.66c-.29-7.23-4.55-13.44-10.14-14.77a9.88,9.88,0,0,0-2.65-.24c-6.7.27-11.88,7.43-11.55,16,.29,7.24,4.55,13.43,10.14,14.75a9.52,9.52,0,0,0,2.65.27,11,11,0,0,0,8.48-5A18,18,0,0,0,180.22,78.66ZM176.09,89a9.74,9.74,0,0,1-7.48,4.42,8.07,8.07,0,0,1-2.29-.23c-5-1.2-8.89-6.91-9.14-13.57-.31-7.87,4.3-14.44,10.31-14.68a8.07,8.07,0,0,1,2.29.23c5,1.2,8.89,6.9,9.16,13.57A16.43,16.43,0,0,1,176.09,89Z"/><path class="cls-3" d="M176.09,89a9.74,9.74,0,0,1-7.48,4.42,8.07,8.07,0,0,1-2.29-.23c-5-1.2-8.89-6.91-9.14-13.57-.31-7.87,4.3-14.44,10.31-14.68a8.07,8.07,0,0,1,2.29.23c5,1.2,8.89,6.9,9.16,13.57A16.43,16.43,0,0,1,176.09,89Z"/><path class="cls-2" d="M168.73,72.37c3.65-.91,6,3,6.25,6.12s-2,7.57-5.73,6.92c2.86-1.13,3.78-3.83,3.83-6.72C172.87,75.84,171.59,73.26,168.73,72.37Z"/><rect class="cls-1" x="232.37" y="45.74" width="1.93" height="42.94" transform="translate(-6.9 31.85) rotate(-7.7)"/><rect class="cls-1" x="184.61" y="54.41" width="1.93" height="41.95" transform="translate(-8.38 25.37) rotate(-7.65)"/><polygon class="cls-3" points="215.12 65.82 213.93 55.97 215.85 55.74 217.03 65.59 215.12 65.82"/><polygon class="cls-1" points="169.64 102.34 155.09 101.52 273.8 82.44 281.92 84.38 169.64 102.34"/><path class="cls-1" d="M154.87,102.45a1,1,0,0,1-.74-.88,1,1,0,0,1,.81-1L273.65,81.49a.93.93,0,0,1,.37,0l8.12,1.93a1,1,0,0,1,.74,1,1,1,0,0,1-.81.92l-112.28,18h-.21L155,102.48A.47.47,0,0,1,154.87,102.45Zm118.89-19L164,101.06l5.56.31L277,84.19Z"/><path class="cls-3" d="M231.8,81.49l-1.43-10a1,1,0,0,0-1.09-.81l-16.42,2.36a1,1,0,0,0-.82,1.09l1.44,10a1,1,0,0,0,.37.64,1,1,0,0,0,.36.16.88.88,0,0,0,.36,0L231,82.58a1,1,0,0,0,.63-.38A.91.91,0,0,0,231.8,81.49Z"/><path class="cls-3" d="M207.5,75a1,1,0,0,0-.38-.63,1,1,0,0,0-.71-.19L190,76.52a1,1,0,0,0-.82,1.09l1.43,10a1,1,0,0,0,.38.63.85.85,0,0,0,.36.17,1,1,0,0,0,.35,0l16.42-2.36a1,1,0,0,0,.82-1.09Z"/><path class="cls-4" d="M193.23,102.81c4.43,1.15,9,2.35,13.58,2.07a47.74,47.74,0,0,0,12.93-2.36c4.13-1.48,8.86-3.21,12.41-5.9,0,0,0-.07,0-.1-5.86-21.16-46-25.33-55.5,1.06a38.59,38.59,0,0,0,7.55,2.4C187.25,100.79,190.17,102,193.23,102.81Z"/><path class="cls-5" d="M205.29,79.22c-11.81-.24-24,5.33-28.66,18.36a38.59,38.59,0,0,0,7.55,2.4c.64.17,1.27.36,1.9.56C188.54,90.55,196.25,83.12,205.29,79.22Z"/><path class="cls-5" d="M231.06,93.66l-1.68,1.72a47.87,47.87,0,0,1-9.31,7c4.06-1.46,8.63-3.16,12.08-5.78,0,0,0-.07,0-.1A19.56,19.56,0,0,0,231.06,93.66Z"/><path class="cls-6" d="M232.15,96.62c-3.55,2.69-8.28,4.42-12.41,5.9a47.74,47.74,0,0,1-12.93,2.36c-4.61.28-9.15-.92-13.58-2.07-3.06-.8-6-2-9-2.83a38.59,38.59,0,0,1-7.55-2.4l-.09.24c-5.08,14.55,5.59,42.41-4.61,72.16,20.46,19.38,46.39,6.08,46.39,6.08C208.89,153.4,236.8,114,232.15,96.62Z"/><path class="cls-7" d="M171.93,170c1.43,1.36,15.91,7.58,15.21,6.91,6.77-14.06-4.45-22.17-1.08-75,0-.08-7.06-3.13-9.43-4.31l-.09.24C171.46,112.37,182.13,140.23,171.93,170Z"/><path class="cls-1" d="M189,180.4a38.53,38.53,0,0,1-17.7-9.72l-.45-.43.2-.59c5.93-17.26,4.72-34.15,3.76-47.72-.7-9.79-1.3-18.24.86-24.44,5.75-16.47,23.19-21.66,37.45-18.27,10.23,2.43,17.7,8.8,20,17,2.2,7.93-2.18,20.18-6.82,33.14-5.7,15.91-12.15,33.95-7,46.29l.33.82-.78.41C218.19,177.21,204.51,184.09,189,180.4ZM173,169.7a36.44,36.44,0,0,0,16.36,8.82c12.8,3,24.6-1.57,27.7-3-4.8-13,1.63-30.93,7.32-46.82,4.53-12.67,8.81-24.63,6.78-32-2.09-7.54-9-13.4-18.57-15.67-13.41-3.19-29.8,1.64-35.18,17-2,5.83-1.44,14.1-.76,23.67C177.66,135.39,178.86,152.27,173,169.7Z"/><path class="cls-4" d="M188.86,180.8a55.8,55.8,0,0,1-18.8-8.21,3.21,3.21,0,0,1,3.73-5.23c7.58,5.41,25.26,12.69,43.38,5.7a3.21,3.21,0,0,1,2.31,6A51.42,51.42,0,0,1,188.86,180.8Z"/><path class="cls-5" d="M187.08,173.69a47.66,47.66,0,0,1-13.29-6.33,3.21,3.21,0,0,0-3.73,5.23,54.21,54.21,0,0,0,14.8,7.09A6.39,6.39,0,0,1,187.08,173.69Z"/><path class="cls-1" d="M188.64,181.74a56.16,56.16,0,0,1-19.14-8.36,4.17,4.17,0,0,1,3.39-7.46,4.09,4.09,0,0,1,1.46.66,47.66,47.66,0,0,0,16.21,7.08,44.25,44.25,0,0,0,26.27-1.5,4.17,4.17,0,1,1,3,7.79A52.51,52.51,0,0,1,188.64,181.74Zm-16.19-14a2.25,2.25,0,0,0-1.83,4,54.3,54.3,0,0,0,18.46,8.05,50.62,50.62,0,0,0,30-1.7,2.25,2.25,0,0,0-.29-4.29,2.29,2.29,0,0,0-1.32.09,46.22,46.22,0,0,1-27.4,1.57,49.47,49.47,0,0,1-16.89-7.38A2.13,2.13,0,0,0,172.45,167.79Z"/><path class="cls-1" d="M201.62,82.39l-.31-.09a3.22,3.22,0,0,1-2-4.08,23.49,23.49,0,0,0-.58-10.32A3.21,3.21,0,1,1,204.87,66c1.61,5.14,1.39,11.81.52,14.33A3.2,3.2,0,0,1,201.62,82.39Z"/><path class="cls-8" d="M180.84,38.57c4-9.6,31.72-27.88,41.4-11.72L213,65.75l-22.53,3Z"/><path class="cls-9" d="M197.94,66.81l-7-38.92c-4.91,3.48-8.76,7.54-10.08,10.68l9.62,30.19,14.73-2Z"/><path class="cls-1" d="M190.25,69.7a1,1,0,0,1-.7-.65l-9.63-30.19a1,1,0,0,1,0-.67c3.25-7.72,21.65-21.34,34.47-18.29a13.41,13.41,0,0,1,8.64,6.46,1,1,0,0,1,.12.71L213.93,66a1,1,0,0,1-.81.73l-22.53,3A1,1,0,0,1,190.25,69.7Zm-8.39-31.08,9.28,29.08,21.07-2.82,9-37.86A11.5,11.5,0,0,0,214,21.77C202.4,19,185.21,31.51,181.86,38.62Z"/><path class="cls-1" d="M212.24,154.48a69,69,0,0,1-.71,8.74c-.21,1.8-.46,3.59-.61,5.38-.1,1.42-.22,2.86-.42,4.28a27,27,0,0,1-.27-9.57A46.1,46.1,0,0,1,212.24,154.48Z"/><path class="cls-1" d="M206.44,160.37a29.92,29.92,0,0,1,.58,6.19,27.77,27.77,0,0,1-.5,6.69,24.46,24.46,0,0,1-.78-6.43A22.93,22.93,0,0,1,206.44,160.37Z"/><path class="cls-1" d="M199.73,170.32c1.08-.06,2.17,0,3.25-.06,1.39,0,2.78-.2,4.16-.33a66.94,66.94,0,0,0,7.32-1.23,14.66,14.66,0,0,1-7.18,2.51A16.29,16.29,0,0,1,199.73,170.32Z"/><path class="cls-1" d="M213.87,164.27a23,23,0,0,1-7.58,3,16.22,16.22,0,0,1-7.65,0c1.11-.16,2.22-.29,3.33-.44,1.44-.2,2.86-.57,4.28-.88C208.78,165.39,211.29,164.62,213.87,164.27Z"/><path class="cls-1" d="M185.12,37.22A58.69,58.69,0,0,1,190,50.92c.66,2.64,1.27,5.3,1.74,8,.2,1.17.39,2.33.54,3.5a11.52,11.52,0,0,0,.17,1.42c-1.43-4-2.5-8.22-3.61-12.36-.7-2.6-1.3-5.24-2-7.84C186.26,41.48,185.66,39.36,185.12,37.22Z"/><path class="cls-1" d="M189,34.24a66.19,66.19,0,0,1,4.23,14.34c.53,2.69,1,5.38,1.37,8.1.17,1.24.31,2.48.43,3.72a11.82,11.82,0,0,0,.11,1.53,6.19,6.19,0,0,1-.38-1.32c-.31-1.13-.6-2.27-.89-3.41-.67-2.7-1.25-5.42-1.84-8.13C191,44.14,189.93,39.19,189,34.24Z"/><path class="cls-1" d="M205.24,29.06c6.64-4.58,11.27,1.05,11.27,1.05l-7.18,21.25Z"/><path class="cls-1" d="M190.46,68.76c5.82-5.4,19.2-6.45,22.53-3C206.89,69.62,197.31,72,190.46,68.76Z"/><path class="cls-1" d="M193.16,70.7a16.19,16.19,0,0,1-3.1-1.07,1,1,0,0,1-.25-1.58c4.85-4.5,14.55-6.14,20.23-4.79a7.34,7.34,0,0,1,3.64,1.82.93.93,0,0,1,.26.78.94.94,0,0,1-.43.7C208.76,69.57,200.59,72.47,193.16,70.7Zm-.81-2.23a13,13,0,0,0,1.26.36c5.86,1.39,12.8-.49,17.6-3.15a8.06,8.06,0,0,0-1.62-.55C204.86,64,197,65.23,192.35,68.47Z"/><rect class="cls-3" x="225.47" y="54.18" width="1.93" height="9.92" transform="translate(-5.42 27.3) rotate(-6.82)"/><rect class="cls-3" x="221.82" y="54.73" width="1.93" height="9.92" transform="translate(-5.51 26.87) rotate(-6.82)"/><rect class="cls-3" x="218.17" y="55.27" width="1.93" height="9.92" transform="translate(-5.59 26.38) rotate(-6.8)"/><path class="cls-1" d="M181.22,99.87a34.11,34.11,0,0,0-2.14,11.31c-.13,4,0,7.93-.45,11.88.05-4-.54-7.9-.83-11.85a36.09,36.09,0,0,1,1-12.12Z"/><path class="cls-1" d="M185,100.75a36.38,36.38,0,0,0-2.34,8.32c-.39,2.59-.61,5.21-.82,7.82-.19-2.64-.37-5.27-.39-7.92a38.41,38.41,0,0,1,1.1-9Z"/><path class="cls-1" d="M174,162.94c5.69,4,11.62,7.59,18.2,9.88-6.9-1.49-13.31-4.4-19.53-7.68C173.11,164.41,173.56,163.68,174,162.94Z"/><path class="cls-1" d="M175,158.66c3.81,2.92,7.6,5.85,11.57,8.54-4.4-1.95-8.66-4.17-12.94-6.37Z"/><path class="cls-1" d="M179.19,97.85a21,21,0,0,1,5.22-8.6A16.13,16.13,0,0,1,193,84.71a15,15,0,0,0-7.52,5.21,20.61,20.61,0,0,0-3.85,8.6Z"/><path class="cls-4" d="M191.47,106.32a95.26,95.26,0,0,1-16.23-5.56,3.21,3.21,0,0,1,2.6-5.88c14.9,6.58,36.08,11.77,52.31-.9a3.21,3.21,0,1,1,3.95,5.07C222.78,107.88,208.24,110.31,191.47,106.32Z"/><path class="cls-5" d="M185.1,97.72c-2.53-.88-5-1.83-7.26-2.84a3.21,3.21,0,0,0-2.6,5.88c2.93,1.29,5.78,2.36,8.59,3.3A6.56,6.56,0,0,1,185.1,97.72Z"/><path class="cls-1" d="M191.24,107.26a95.32,95.32,0,0,1-16.38-5.62,4.17,4.17,0,0,1,2.64-7.88,4.79,4.79,0,0,1,.73.24,87.15,87.15,0,0,0,14.87,5.1c14.71,3.5,27,1.52,36.46-5.88a4.19,4.19,0,0,1,5.86.73,4.17,4.17,0,0,1-.73,5.86C223.1,108.85,208.48,111.35,191.24,107.26ZM177.06,95.63a2.25,2.25,0,0,0-1.43,4.25,93.82,93.82,0,0,0,16.06,5.5c16.64,4,30.71,1.57,41.82-7.09a2.25,2.25,0,0,0-.86-4,2.23,2.23,0,0,0-1.9.41c-10,7.78-22.79,9.88-38.1,6.24a89.33,89.33,0,0,1-15.2-5.22A3,3,0,0,0,177.06,95.63Z"/><path class="cls-10" d="M177.21,149.85l-.1-1.15-.13-1.23c-.09-.82-.18-1.64-.29-2.44l-.17-1.2-.18-1.23a3.28,3.28,0,0,0-.51-1.72h0L164,122.15l14.49-13.07a4.51,4.51,0,0,0,.52-.55,4.93,4.93,0,1,0-7.65-6.21l-13.83,17.07-.15.19a3.18,3.18,0,0,0-.24,3.7l12.36,20.08-.29,1.46c-.15.72-.33,1.42-.48,2.12L168.5,148l-.29,1.12-.57,2.25a5,5,0,1,0,9.78.8Z"/><path class="cls-1" d="M171.09,158.39h0a5.94,5.94,0,0,1-4.54-5.25,6.14,6.14,0,0,1,.16-2l.87-3.38.25-1c.05-.24.11-.5.17-.75q.16-.66.3-1.35l.22-1.08-12.16-19.75a4.19,4.19,0,0,1,.31-4.82l.16-.2,13.83-17a5.92,5.92,0,0,1,5.94-2,5.83,5.83,0,0,1,2.34,1.15,5.9,5.9,0,0,1,.86,8.28,6.39,6.39,0,0,1-.62.66l-13.89,12.54,11.36,18a4.15,4.15,0,0,1,.66,2.16l.35,2.37c.07.55.13,1.11.2,1.67l.32,3.21.21,2.31a5.95,5.95,0,0,1-5.39,6.45A6.06,6.06,0,0,1,171.09,158.39Zm5-56.82a4,4,0,0,0-4,1.36l-14,17.26a2.26,2.26,0,0,0-.16,2.59l12.56,20.39-.37,1.83c-.09.49-.21.95-.31,1.42l-.18.73-.25,1.07-.87,3.39a4.18,4.18,0,0,0-.11,1.36,4,4,0,0,0,3.07,3.55h0a4,4,0,0,0,1.29.09,4,4,0,0,0,3.64-4.36l-.53-5.47c-.06-.55-.12-1.09-.19-1.62l-.37-2.56a2.25,2.25,0,0,0-.35-1.21L162.78,122l15.09-13.61a4.32,4.32,0,0,0,.42-.45,4,4,0,0,0-.58-5.57A3.87,3.87,0,0,0,176.14,101.57Z"/><path class="cls-1" d="M242.62,29.55a2,2,0,0,1-.23-1.09,3.06,3.06,0,0,1,.9-2,5,5,0,0,1,2.24-1.38,6.36,6.36,0,0,1,2-.26,4.65,4.65,0,0,1,2.14.58l.6-14.8,1.26.05L250.87,27a3.34,3.34,0,0,1-1.23,2.35,5.51,5.51,0,0,1-2.5,1.29,8.08,8.08,0,0,1-2,.21A2.75,2.75,0,0,1,242.62,29.55Z"/><path class="cls-1" d="M170.74,37.29l-.79-.46,7.36-12.67-6.21-3.61-5.64,9.71a2.74,2.74,0,0,1-1.76,1.21,4.54,4.54,0,0,1-2.26,0,6.42,6.42,0,0,1-1.49-.6,2.21,2.21,0,0,1-1.3-1.88,1.73,1.73,0,0,1,.24-.87,2.57,2.57,0,0,1,1.4-1.08,4,4,0,0,1,2.11-.13,4.73,4.73,0,0,1,1.51.57,3.55,3.55,0,0,1,1.3,1.21l6-10.28L179.07,23Z"/><path class="cls-1" d="M248.48,144.71l-.89-.21,3.25-14.28-7-1.59-2.49,10.94a2.68,2.68,0,0,1-1.32,1.67,4.29,4.29,0,0,1-2.16.66,6.14,6.14,0,0,1-1.6-.13,2.2,2.2,0,0,1-1.8-1.41,1.53,1.53,0,0,1,0-.9,2.48,2.48,0,0,1,1-1.44,3.94,3.94,0,0,1,2-.76,4.84,4.84,0,0,1,1.62.09,3.68,3.68,0,0,1,1.6.77l2.64-11.6,8.88,2Z"/><path class="cls-1" d="M199,11.53a1.27,1.27,0,0,1,.43-.21l2.46-.9A8.23,8.23,0,0,0,204.41,9a3.65,3.65,0,0,0,1.13-2.45,7.48,7.48,0,0,0-.13-2.52c-.17-.78-.29-1.13-.38-1L197.88,9.9a2.69,2.69,0,0,1-2,.68,4.5,4.5,0,0,1-2.14-.64,5.79,5.79,0,0,1-1.24-1,2.2,2.2,0,0,1-.74-2.15,1.72,1.72,0,0,1,.46-.76,2.49,2.49,0,0,1,1.61-.64,3.92,3.92,0,0,1,2,.43,5,5,0,0,1,1.29.95,3.8,3.8,0,0,1,.93,1.52L206.73,0l.21.22-.12.77c0,.6.08,1.21.1,1.8a15.41,15.41,0,0,1-.25,3.6A5.84,5.84,0,0,1,205,9.65a6.55,6.55,0,0,1-2.35,1.19,16.6,16.6,0,0,1-2.64.69C199.16,11.68,198.81,11.68,199,11.53Z"/><path class="cls-1" d="M266.56,113.62a1.25,1.25,0,0,1,.35-.32l2.12-1.54a8.87,8.87,0,0,0,2.08-2.06,3.74,3.74,0,0,0,.4-2.67,7.41,7.41,0,0,0-.82-2.38q-.57-1.07-.66-.9l-5,8.6a2.67,2.67,0,0,1-1.73,1.2,4.43,4.43,0,0,1-2.23,0,6.43,6.43,0,0,1-1.46-.58,2.21,2.21,0,0,1-1.31-1.86,1.76,1.76,0,0,1,.23-.86,2.51,2.51,0,0,1,1.37-1.06A4,4,0,0,1,262,109a5.17,5.17,0,0,1,1.5.56,3.65,3.65,0,0,1,1.31,1.2l6-10.39.27.15.1.77c.2.57.4,1.14.59,1.71a15.88,15.88,0,0,1,.76,3.52,6,6,0,0,1-.68,3.6,6.83,6.83,0,0,1-1.93,1.79,16.27,16.27,0,0,1-2.35,1.39C266.8,113.71,266.45,113.81,266.56,113.62Z"/><path class="cls-10" d="M223.83,90.14c.9,2,.71,4-.43,4.54S220.61,94,219.7,92s-.72-4,.42-4.53S222.92,88.15,223.83,90.14Z"/><path class="cls-10" d="M217.42,86.15A1.71,1.71,0,1,1,216.17,84,1.75,1.75,0,0,1,217.42,86.15Z"/><path class="cls-10" d="M226.4,115.91c-1.31,3.51-3.34,6-4.54,5.54s-1.1-3.65.21-7.16,3.34-6,4.54-5.53S227.72,112.41,226.4,115.91Z"/><path class="cls-10" d="M222.33,128.68a2,2,0,1,1-3.92-.94,2,2,0,1,1,3.92.94Z"/><path class="cls-1" d="M319.19,277.27a4.47,4.47,0,1,0,4,4.87A4.52,4.52,0,0,0,319.19,277.27Z"/><path class="cls-1" d="M336.75,259.9c-5.41-.51-6.19,7.89-.78,8.39S342.17,260.4,336.75,259.9Z"/><path class="cls-1" d="M332.89,206c0,.23,0,.45,0,.67a.18.18,0,0,0,.35,0l.15-.65C333.48,205.68,332.87,205.62,332.89,206Z"/><path class="cls-1" d="M312.78,182.18a3.33,3.33,0,0,0-3.54,3.85c0,.19,0,.39.05.59.3,3.08,5.23,3.54,6.09.57.05-.19.11-.38.16-.57A3.33,3.33,0,0,0,312.78,182.18Z"/><path class="cls-1" d="M328.55,212.49a3.69,3.69,0,1,0,3.34,4A3.71,3.71,0,0,0,328.55,212.49Z"/><path class="cls-1" d="M334.37,185.73a3.08,3.08,0,1,0,2.78,3.36A3.11,3.11,0,0,0,334.37,185.73Z"/><path class="cls-1" d="M353.77,197.79a7.41,7.41,0,0,0-3.59-2.53h0l-.24-.08-.2-.05h0a6.28,6.28,0,0,0-4.63.23c-.11,0-.19.14-.3.2a5.27,5.27,0,0,0-3.78,4.52,5,5,0,0,0,0,.55,6.23,6.23,0,0,0,.08,3.63,5,5,0,0,0,1.34,2.74,11.48,11.48,0,0,0,1.55,1.41,7.31,7.31,0,0,0,10.06-1.69A7.45,7.45,0,0,0,353.77,197.79Z"/><path class="cls-1" d="M158,282c-5.94-.56-6.8,8.65-.86,9.2S163.89,282.55,158,282Z"/><path class="cls-1" d="M159.17,158.74a4.22,4.22,0,0,0-3.73-3.43,3.36,3.36,0,0,0-1.34.06,4.42,4.42,0,0,0-3.21,2.66,4.37,4.37,0,0,0,.7,4.2l-.36-.51c.76,2.31,4.23,2.86,6,1.35A4.27,4.27,0,0,0,159.17,158.74Z"/><path class="cls-1" d="M28.54,230.4a5,5,0,0,0-5.37,4.46c0,.16,0,.33,0,.49a4.91,4.91,0,0,0,9.78.91c0-.16.06-.32.08-.48A5,5,0,0,0,28.54,230.4Z"/><path class="cls-1" d="M5,162.11a4.59,4.59,0,1,0-.86,9.14A4.59,4.59,0,1,0,5,162.11Z"/><path class="cls-1" d="M9.29,178.37a7.07,7.07,0,0,0-4.24.91,6.29,6.29,0,0,0-1,10.68,7.1,7.1,0,0,0,4,1.67,6.66,6.66,0,0,0,1.23-13.26Z"/><path class="cls-1" d="M341.31,235.58A12.57,12.57,0,0,0,330,225c-8.31-.78-13.43,6.39-16.17,10.24l-.09.12c-2.45,3.27-7.17,5.81-12.36,7-.11-.46-.23-.93-.38-1.38,7.82-2.8,13.83-12.62,14.61-14,4.81-8.19,2.31-14.11.39-16.91-6.72-9.81-14.31-13.85-20.48-15.39,4.11-4.6,6.74-9,8-13.49a13.22,13.22,0,0,0-.37-8.85,14.84,14.84,0,0,0,.44-9.72,34.08,34.08,0,0,0-10.45-15.89,12.36,12.36,0,0,0-2.41-1.61,12.21,12.21,0,0,0-2.24-1.84,41.53,41.53,0,0,0-5.76-3.06,11.54,11.54,0,0,0-2.52-.75,11.94,11.94,0,0,0-2.48-1.08,57.13,57.13,0,0,0-28.45-1c-8.36,1.9-17,7.59-23,15.34a25.8,25.8,0,0,0-10-3c-10-.93-21.07,3-27.6,7.25a52.57,52.57,0,0,0-12.33,11.27,12,12,0,0,0-5-1.65c-6.93-.64-11.38,4.39-14.67,8.57a12.22,12.22,0,0,0-11-11.13,11.75,11.75,0,0,0-1.57,0,247,247,0,0,0,2.47-24.74,12,12,0,0,0-.3-3.06,11.74,11.74,0,0,0,.45-3.18c0-1.46,0-2.91,0-4.36a12.11,12.11,0,0,0-.44-2.83,12.2,12.2,0,0,0,.17-2.9c-.1-1.45-.22-2.88-.36-4.31a11.82,11.82,0,0,0-.61-2.61,11.78,11.78,0,0,0-.08-2.78c-.3-1.9-.59-3.57-.92-5.12-3.08-14.89-10.9-18.69-16.92-19.25-13.83-1.29-25,16-30.87,27.43-4.1-11.46-11-22-23.22-23.11a22.93,22.93,0,0,0-3-.07c-12.52.58-21.16,12.77-26.2,22.89-.5,1-.95,2-1.36,3a11.92,11.92,0,0,0-17.78-.86l-.13.12c-4.11,3.67-11.6,10.42-12.56,18.49-5.69,6.25-4.54,11.94-3.22,14.93q5.26,11.9,10.1,24.28c.49,3.66,1.38,7.33,1.87,11,.74,5.46.95,10.82-.7,16.17-1.31,4.26-2.21,5.56.16,9.65,1.46,2.52,4,3,6.43,1.44l2.07-1.32A5.15,5.15,0,0,0,31.22,209q3.38,10.14,6.58,20.74a11.89,11.89,0,0,0,1.51,3.2,12,12,0,0,0,.48,3.58c1.69,5.92,3.31,11.85,4.79,17.56A11.94,11.94,0,0,0,55,263.05h0a12.12,12.12,0,0,0,2.89-.09,12.12,12.12,0,0,0,4.15,1.34c-.14,1.34-.22,2.7-.32,4.06a20.1,20.1,0,0,0,1.93,10.75,2.53,2.53,0,0,0,4.3.4c2.24-2.89,3.07-6.68,3.23-10.26a51.11,51.11,0,0,0,0-7.32,23.14,23.14,0,0,0,3.36-2.82c5-4.89,10.86-12.25,10.35-19.56-.41-5.7-1-11.58-1.65-18a12.48,12.48,0,0,0,2.33.45q7.77.72,15.05-8.35c.89-1.13,2-2.53,3.1-4.17.23.3.48.59.73.87-1,5.32-2,10.75-3.16,16.4q-1,5.12-2.2,10.22c-.07.25-.17.59-.28.95-.21.69-.42,1.42-.58,2a15.67,15.67,0,0,0-.84,6.23,12.32,12.32,0,0,0,11.17,11.65h0a12.62,12.62,0,0,0,4.84-.49,21.21,21.21,0,0,0,11.16-8.18,16.59,16.59,0,0,0,3.77,1.34c-1.13,2.89-1.19,6-1.42,9.31-.41,6-1.13,11.85-1.2,17.85-.1,7.77,11.24,7.33,10.59-.44-.46-5.52-1.1-11.1-1.19-16.64,0-.54,0-1.08,0-1.62a3.65,3.65,0,0,0,4.57-.21c1.84-1.76,2-4.2,2.53-6.59a7.44,7.44,0,0,0-.29-4c.83-.45,1.68-.95,2.52-1.52l.67-.45a18.61,18.61,0,0,0,8.85,7.3,24.33,24.33,0,0,0,2,7.63c5.93,13.38,19.06,22.26,35.13,23.77h0a51.59,51.59,0,0,0,16.18-1.06c-1.42,3.64-1.91,7.84-2.71,11.5-1.36,6.18-3.43,13.82-.55,19.76a3.11,3.11,0,0,0,4.76,1.07c5-4.53,4.67-11,5.06-17.36.21-3.5-.56-6.93-.31-10.46a25.71,25.71,0,0,0-.08-6.36c1.06-.39,2.11-.82,3.12-1.28-1.38,11.64-1.52,23.78-2.53,35.4-.65,7.48-1.44,14.95-2.32,22.42-.74,6.28-2.08,11.4.74,17.18a4.36,4.36,0,0,0,7.4.69c7.51-9.28,4.6-27.91,4.79-39.3.21-13.52,1-27.69,0-41.15a40.75,40.75,0,0,0,7.64-7.37,66,66,0,0,0,8.21-12.95,12.08,12.08,0,0,0,6.09,2.37,11.25,11.25,0,0,0,4-.38,11.6,11.6,0,0,0,.88,2.69,35.58,35.58,0,0,0,3.26,5.42,11.77,11.77,0,0,0,2.28,2.34,11.94,11.94,0,0,0,1.94,2.4,32.7,32.7,0,0,0,5.76,4.27,12,12,0,0,0,2.83,1.18,11.22,11.22,0,0,0,2.65,1.41,40.81,40.81,0,0,0,10.63,2.39,51.85,51.85,0,0,0,11.17-.23,43.34,43.34,0,0,0-1.41,8.76c-.45,4.16-.55,8.25.75,12.25.6,1.87,3.8,2.17,4.74.44,2-3.69,2.68-7.73,3-11.9.27-3.48.77-7.42-.18-10.86,13.68-3.51,26-12.46,36.63-26.7C341.61,243.4,341.81,238.74,341.31,235.58Z"/><path class="cls-11" d="M70.1,211.64c-.76.66-1.53,1.31-2.26,2-4.18,3.83-7.7,9.12-12,13q3.91,12.83,7.61,25.7c.43,1.48,9.81-8.64,9.58-12C72.35,230.78,71.31,221.2,70.1,211.64Z"/><path class="cls-12" d="M65.3,210.57c1.38-1.21,2.79-2.4,4.19-3.58-.15-1.14-.32-2.29-.48-3.43-5.13,5.12-10.32,10.17-15.65,15.08.4,1.26.8,2.52,1.19,3.78C58.25,218.66,61.45,214,65.3,210.57Z"/><path class="cls-13" d="M57,205.25c-2.11,1.69-4.22,3.38-6.31,5.1.43,1.36.88,2.72,1.32,4.09,5.54-5.14,11-10.42,16.28-15.78-.1-.67-.21-1.34-.3-2C64.35,199.49,60.68,202.34,57,205.25Z"/><path class="cls-14" d="M124.56,133.47c3.25-3.29,6.6-6.47,9.94-9.67-.08-1.3-.18-2.6-.32-3.89q-5.07,4.64-10,9.46C124.34,130.73,124.46,132.1,124.56,133.47Z"/><path class="cls-15" d="M124.83,143.17q5-5.08,10-10.14c0-1.34,0-2.68,0-4-3.39,3.22-6.74,6.46-9.94,9.86C124.86,140.3,124.83,141.74,124.83,143.17Z"/><path class="cls-16" d="M134.65,138.82q-5,5-9.92,10.12c-.59,16.47-3.48,33.18-6,49q-2.53,15.65-5.72,31.17-1.08,5.34-2.28,10.64c-.14.63-.87,2.86-1.06,3.72a3.91,3.91,0,0,0-.34,1.87.17.17,0,0,0,0,.07q0,.72.72.51c6.56-2,9-12.15,10.35-18.09,2.57-11.44,4.71-23,6.69-34.54C130,176.2,133.87,157.26,134.65,138.82Z"/><path class="cls-17" d="M174.85,221.48a30.56,30.56,0,0,0-6.49,9.15c.14-.3-3.28-3-3.63-3.38-1.88-2.3-2.45-5.64-3-8.48-1-4.78-.4-9.19.73-13.85,0-.11.06-.21.08-.32,4.38-7.75,9.47-17.68,8-25.85-.38-2.13-8.79,9.26-9.43,11.09-2.92,8.29-6.63,17.25-8.36,26.26-2.57,4.12-5.52,7.53-8.55,9.16-4.2-4-5.14-9.5-4.44-15.29,0,.12-2.27,1.88-2.4,3-.59,4.85,0,9.53,2.56,13.29a5.69,5.69,0,0,1-.8-.11c-10.95-2.54,3.24-42.08,5.6-48.91,1.11-3.24-3,.49-3.51,1a27.26,27.26,0,0,0-5.79,9.2,181.43,181.43,0,0,0-9.05,37.37c-1.06,8.91,1.46,18.69,11.55,11.95,5.38-3.61,10-8.91,14-14.6a42,42,0,0,0,0,6.44c.39,5,2.75,15.68,9.74,13.94s12.4-13.92,15.2-19.71C178,220.25,176.83,219.64,174.85,221.48Z"/><path class="cls-18" d="M192.26,191.41a2.07,2.07,0,0,1,.68-.59,28.6,28.6,0,0,1-4-10.08,11.24,11.24,0,0,1-.06-1.42l1.36-1c.24-.13.51-.23.76-.35,0,6.27,3.8,11.68,7.72,16.36.2.24,2.86-2.56,2.3-3.23-3.47-4.15-6.79-8.83-7.5-14.19a48.23,48.23,0,0,1,7.7-1.94,18.78,18.78,0,0,1,10.17,1.14c1.9.73,6.43,5.18,4.34,7.5s-8.95,15.61-2.29,8.2c4.56-5.07,15-16.31,11.42-24.11-4.8-10.53-22.45-5.42-29.58-.74-7.28,4.77-14,12.84-15.77,21.54-1,4.7.62,9.34,3.21,13.56C185.73,198.41,189.47,195.21,192.26,191.41Z"/><path class="cls-19" d="M210.1,208.06c-1.5-1.11-3-2.32-4.59-3.6-2.75,4.49-5.44,9-8.41,13.36,6.34,5.06,13.41,9.18,19,15.17a27.79,27.79,0,0,1,7.12,16.57c.38,4.41-1,6.61-3.54,8,4.18-10.88-2.86-23.19-13-28.67-.65-.36-2.72,3-2.29,3.24,7.82,4.25,17.4,16.25,13.9,26.06a37.1,37.1,0,0,1-4.55,1.39c-11.75,3-26.36-2-34.41-10.87a17.63,17.63,0,0,1-3.55-6.26,7,7,0,0,1-.31-1.24c4.73-1.27,10.64-.24,14.81.51s9.55-12.89,9.19-12.95c-9.52-1.73-18.61-1.65-25.5,5.91-5.07,5.56-10.53,13.87-7.11,21.59,9.44,21.32,42.68,21.93,56.12,4.9,6.34-8,11.05-16.92,9.3-27.4C230.19,221.39,219.32,214.9,210.1,208.06Z"/><path class="cls-20" d="M194.05,215.25c3-4.37,5.67-8.91,8.43-13.41-.78-.71-1.55-1.44-2.3-2.18-2.89,4.34-5.9,8.61-9.09,12.74l.83.85C192.61,214,193.33,214.6,194.05,215.25Z"/><path class="cls-21" d="M185,205.4c1.09,1.43,2.24,2.8,3.4,4.09,3.17-4.16,6.16-8.44,9-12.8-.75-.86-1.49-1.72-2.18-2.63C192.21,198,188,201.37,185,205.4Z"/><path class="cls-22" d="M273.74,166.7a128.75,128.75,0,0,0,7.82-12.25c.21-.36.4-.71.62-1.07a31.17,31.17,0,0,0-4.16-2.21c-2.86,4.38-5.82,8.71-8.52,13.19A31,31,0,0,1,273.74,166.7Z"/><path class="cls-23" d="M282.68,178.15c.38,1.21,10.68-8.4,9.57-12a22.39,22.39,0,0,0-6.87-10.4c-.21.33-.39.67-.6,1-2.44,3.91-5,8.42-7.95,12.37A20.28,20.28,0,0,1,282.68,178.15Z"/><path class="cls-24" d="M286.3,187.21c2.32-2.53,4.84-5.83,5.79-9.2s-2.94.4-3.5,1c-13.08,14.25-37.48,4.1-46.25-9.94a14.73,14.73,0,0,1-2.19-5.91l.77-.3a24.13,24.13,0,0,1,2.46-.77c.66,7,5.35,12.26,11.16,15.92.57.36,2.77-2.94,2.29-3.24-5-3.17-9.25-7.57-10.66-13.27.89-.15,1.77-.28,2.65-.37a41.34,41.34,0,0,1,17,1.78c2.68-4.45,5.62-8.75,8.47-13.12A44.77,44.77,0,0,0,252,149c-10.47,2.38-21.58,14-21.46,25.12.11,10.54,11.94,18.72,20.59,22.24-.53.81-1,1.58-1.42,2.2-9.43,14.27-12.13,32.87-2,47.55.46.67,11.35-9.81,9.18-13-6.73-9.74-9-25.15-2.46-35.66C266.45,201,277.76,196.52,286.3,187.21Z"/><path class="cls-25" d="M269.91,237c-.61-2.85-1.68-14.32.73-16.13.29-.22.59-.38.89-.57a37.7,37.7,0,0,0,1,16.45c.08.28,2.65-2.08,2.39-3a37.71,37.71,0,0,1-1.27-14.58c8.73-3.61,18.61,3.64,23.39,10.61.45.66,11.35-9.8,9.18-12.95-20.72-30.23-52.75,8.33-45.5,34.21q5.11-5.33,10-10.81A33.38,33.38,0,0,1,269.91,237Z"/><path class="cls-26" d="M272.44,244.25q-5,5.53-10.2,10.9a23,23,0,0,0,2.15,3.56c3-4.14,6.31-8.09,9.57-12.06A17.65,17.65,0,0,1,272.44,244.25Z"/><path class="cls-27" d="M276.79,249.44c-3.32,4-6.65,8.07-9.71,12.3a21.14,21.14,0,0,0,3.7,2.73c2.88-4.42,5.43-9,7.92-13.71C278.05,250.34,277.4,249.92,276.79,249.44Z"/><path class="cls-28" d="M329.26,236.93c-1.47-1.05-5.4,4.78-5.95,5.51-8.38,11.21-27.88,15.92-41.14,10.19-2.46,4.6-4.95,9.18-7.76,13.55,5.41,2,11.69,2.26,17.82,1.27,14.23-2.29,25.45-11.92,33.8-23.09C326.57,243.64,330.7,238,329.26,236.93Z"/><path class="cls-29" d="M115.52,199.57c4-21.92,6.67-43.93,5.79-66.25,0,0-2.43,1.93-2.39,3,.86,22.18-1.76,44-5.73,65.8C113.05,202.9,115.37,200.38,115.52,199.57Z"/><path class="cls-30" d="M118.47,113.62c3.2,1.53,4.5,6.65,5.14,10.81,3.27-3.17,6.57-6.3,10-9.33-.24-1.51-.5-3-.8-4.51-5.71-27.53-26,10.52-29.45,19.8A258,258,0,0,0,94,162.6c-.92-6.15-2-12.23-3.06-18.1-1.7-9.43-5.65-40.09-20-39.43-7.21.33-13.39,10.87-16.09,16.3-5.26,10.57-4.57,23.17-3.69,34.59.57,7.45,1.41,14.88,2.4,22.29-6.05-17.47-12.61-34.76-20-51.7.06.14-10.93,8.94-9.18,13,9.51,21.8,17.66,44.19,25,66.83,1.68-1.39,3.37-2.79,5.08-4.14,4.26-3.37,8.57-6.69,12.86-10-1.64-11.28-3.37-22.55-5-33.83s-2.76-22.83-1.81-34.24c10.09-.76,16.75,35.75,18.1,41.8,0,.24,2.61-2,2.4-3-1.53-6.83-8.11-46.41-20.17-41.49.18-1,.38-2,.63-3l.45-.15c2.44-.75,4.73.79,6.43,2.35,10.81,9.82,13.29,31.49,15.34,44.91.7,4.54,2,21.21,2.61,44.17.06,2.07,4.69-3.09,4.88-3.33,1.85-2.31,4.46-5.55,4.7-8.64s.29-6.51.26-9.81c1.3-18.07,7-37.08,11.85-53.83a168.21,168.21,0,0,1,5.51-16.22c.5-1.24,1.06-2.48,1.65-3.69a55.21,55.21,0,0,1,3,13.67c0,.13,2.51-2,2.39-3A63.77,63.77,0,0,0,118.47,113.62Z"/><path class="cls-30" d="M118.47,113.62c3.2,1.53,4.5,6.65,5.14,10.81,3.27-3.17,6.57-6.3,10-9.33-.24-1.51-.5-3-.8-4.51-5.71-27.53-26,10.52-29.45,19.8A258,258,0,0,0,94,162.6c-.92-6.15-2-12.23-3.06-18.1-1.7-9.43-5.65-40.09-20-39.43-7.21.33-13.39,10.87-16.09,16.3-5.26,10.57-4.57,23.17-3.69,34.59.57,7.45,1.41,14.88,2.4,22.29-6.05-17.47-12.61-34.76-20-51.7.06.14-10.93,8.94-9.18,13,9.51,21.8,17.66,44.19,25,66.83,1.68-1.39,3.37-2.79,5.08-4.14,4.26-3.37,8.57-6.69,12.86-10-1.64-11.28-3.37-22.55-5-33.83s-2.76-22.83-1.81-34.24c10.09-.76,16.75,35.75,18.1,41.8,0,.24,2.61-2,2.4-3-1.53-6.83-8.11-46.41-20.17-41.49.18-1,.38-2,.63-3l.45-.15c2.44-.75,4.73.79,6.43,2.35,10.81,9.82,13.42,30.14,15.47,43.55.7,4.55,1.85,22.57,2.48,45.53.06,2.07,4.69-3.09,4.88-3.33,1.85-2.31,4.46-5.55,4.7-8.64s.29-6.51.26-9.81c1.3-18.07,7-37.08,11.85-53.83a168.21,168.21,0,0,1,5.51-16.22c.5-1.24,1.06-2.48,1.65-3.69a55.21,55.21,0,0,1,3,13.67c0,.13,2.51-2,2.39-3A63.77,63.77,0,0,0,118.47,113.62Z"/><path class="cls-30" d="M118.47,113.62c3.2,1.53,4.5,6.65,5.14,10.81,3.27-3.17,6.57-6.3,10-9.33-.24-1.51-.5-3-.8-4.51-5.71-27.53-26,10.52-29.45,19.8A258,258,0,0,0,94,162.6c-.92-6.15-2-12.23-3.06-18.1-1.7-9.43-5.65-40.09-20-39.43-7.21.33-13.39,10.87-16.09,16.3-5.26,10.57-4.57,23.17-3.69,34.59.57,7.45,1.41,14.88,2.4,22.29-6.05-17.47-12.61-34.76-20-51.7.06.14-10.93,8.94-9.18,13,9.51,21.8,17.66,44.19,25,66.83,1.68-1.39,3.37-2.79,5.08-4.14,4.26-3.37,8.57-6.69,12.86-10-1.64-11.28-3.37-22.55-5-33.83s-2.76-22.83-1.81-34.24c10.09-.76,16.75,35.75,18.1,41.8,0,.24,2.61-2,2.4-3-1.53-6.83-8.11-46.41-20.17-41.49.18-1,.38-2,.63-3l.45-.15c2.44-.75,4.73.79,6.43,2.35,10.81,9.82,13.6,28.16,15.65,41.57.7,4.55,1.67,24.55,2.3,47.51.06,2.07,4.69-3.09,4.88-3.33,1.85-2.31,4.46-5.55,4.7-8.64s.29-6.51.26-9.81c1.3-18.07,7-37.08,11.85-53.83a168.21,168.21,0,0,1,5.51-16.22c.5-1.24,1.06-2.48,1.65-3.69a55.21,55.21,0,0,1,3,13.67c0,.13,2.51-2,2.39-3A63.77,63.77,0,0,0,118.47,113.62Z"/><path class="cls-31" d="M118.47,113.62c3.2,1.53,4.5,6.65,5.14,10.81,3.27-3.17,6.57-6.3,10-9.33-.24-1.51-.5-3-.8-4.51-5.71-27.53-26,10.52-29.45,19.8A258,258,0,0,0,94,162.6c-.92-6.15-2-12.23-3.06-18.1-1.7-9.43-5.65-40.09-20-39.43-7.21.33-13.39,10.87-16.09,16.3-5.26,10.57-4.57,23.17-3.69,34.59.57,7.45,1.41,14.88,2.4,22.29-6.05-17.47-12.61-34.76-20-51.7.06.14-10.93,8.94-9.18,13,9.51,21.8,17.66,44.19,25,66.83,1.68-1.39,3.37-2.79,5.08-4.14,4.26-3.37,8.57-6.69,12.86-10-1.64-11.28-3.37-22.55-5-33.83s-2.76-22.83-1.81-34.24c10.09-.76,16.75,35.75,18.1,41.8,0,.24,2.61-2,2.4-3-1.53-6.83-8.11-46.41-20.17-41.49.18-1,.38-2,.63-3l.45-.15c2.44-.75,4.73.79,6.43,2.35,10.81,9.82,13.79,26.18,15.84,39.6.7,4.54,2.13,25.63,2.77,48.59.06,2.07,4-2.2,4.22-2.44,1.85-2.31,4.46-5.55,4.7-8.64s.29-6.51.26-9.81c1.3-18.07,7-37.08,11.85-53.83a168.21,168.21,0,0,1,5.51-16.22c.5-1.24,1.06-2.48,1.65-3.69a55.21,55.21,0,0,1,3,13.67c0,.13,2.51-2,2.39-3A63.77,63.77,0,0,0,118.47,113.62Z"/><path class="cls-32" d="M79.7,176.44c.88,7.58,1.23,15.17,1.86,22.76,0,.09,2.48-1.95,2.4-3-.63-7.6-1-15.19-1.86-22.77C82.08,173.32,79.58,175.41,79.7,176.44Z"/><path class="cls-33" d="M142.72,191a5.62,5.62,0,0,0-1.45,2.29c-.7,3.55-1.49,7.07-2.27,10.59-.17.81.72-.07.88-.25a5.92,5.92,0,0,0,1.45-2.3c.78-3.52,1.57-7,2.26-10.59C143.75,189.9,142.89,190.76,142.72,191Z"/><path class="cls-34" d="M203.17,199.16a77.1,77.1,0,0,0,10.54,8.7c.52.36,2.78-2.9,2.29-3.24a77.62,77.62,0,0,1-10.53-8.7C205.15,195.61,202.61,198.61,203.17,199.16Z"/><path class="cls-35" d="M277.68,240.11c-.07-.12-2.81,2.39-2.29,3.24A16.61,16.61,0,0,0,281,249c.62.36,2.76-3,2.3-3.24A16.46,16.46,0,0,1,277.68,240.11Z"/><path class="cls-36" d="M260.46,181a52.09,52.09,0,0,0,9.31,2.83c1,.2,2.41-3.22,2.29-3.24a52,52,0,0,1-9.3-2.83C262,177.47,260.13,180.89,260.46,181Z"/><path class="cls-37" d="M53.62,230.28c-.08-.29-2.65,2.08-2.39,3q2.57,8.91,4.88,17.89c.07.27,2.64-2.06,2.4-3Q56.19,239.2,53.62,230.28Z"/><path class="cls-38" d="M22.36,143.69s-2.74,2.24-2.3,3.24a682.8,682.8,0,0,1,29.13,79.41c.1.3,2.67-2.09,2.4-3A688.32,688.32,0,0,0,22.36,143.69Z"/><path class="cls-10" d="M30.33,136.59c5.29,11.16,10.6,22.32,14.36,34.12.1.3,2.67-2.11,2.39-3C43.3,155.83,38,144.6,32.62,133.35c0,0-2.75,2.27-2.29,3.24Z"/><path class="cls-10" d="M71.74,112.88c9.78,6.15,11.32,19.64,14.44,29.8.09.31,2.66-2.09,2.39-3-3.12-10.17-4.72-23.87-14.53-30-.57-.36-2.77,3-2.3,3.24Z"/><path class="cls-10" d="M58.18,165c-.24,4.15,1.17,8.09,1.86,12.13,0,.18,2.56-2,2.39-3-.68-4-2.1-8-1.86-12.14,0-.5-1.18.79-1.22.84A4.58,4.58,0,0,0,58.18,165Z"/><path class="cls-10" d="M60.4,187.46a59.08,59.08,0,0,0,1.69,6.79c.16.5,1.12-.7,1.22-.83.31-.38,1.36-1.59,1.17-2.16a60.84,60.84,0,0,1-1.69-6.8c-.09-.52-1.14.74-1.21.83-.36.44-1.3,1.52-1.18,2.17Z"/><path class="cls-10" d="M86.9,152.72c.66,2.9,1.13,5.83,1.5,8.78.07.51,1.16-.76,1.23-.84.37-.47,1.26-1.48,1.17-2.16-.38-2.95-.85-5.88-1.51-8.78-.12-.51-1.13.73-1.21.84-.35.42-1.33,1.54-1.18,2.16Z"/><path class="cls-10" d="M129.55,146.73c-1,11.79-1.9,23.71-4.58,35.25-.18.74,2.13-1.75,2.32-2.55,2.72-11.7,3.64-23.76,4.66-35.69,0,.08-2.3,1.89-2.4,3Z"/><path class="cls-10" d="M120.55,107.46c4.76-2.08,8,3.91,7.71,7.92,0,.5,1.18-.78,1.22-.83a4.58,4.58,0,0,0,1.17-2.16c.26-4.22-3.12-10.34-8.07-8.17a4.61,4.61,0,0,0-1.65,1.82s-.84,1.63-.38,1.42Z"/><path class="cls-10" d="M164.57,191.61a35.52,35.52,0,0,0-3.16,10c-.15.8.7-.06.88-.25a5.5,5.5,0,0,0,1.45-2.31,30.66,30.66,0,0,1,2.58-8.69c.1-.18.64-1.39-.06-.91a6.29,6.29,0,0,0-1.69,2.13Z"/><path class="cls-10" d="M157.11,219.86c1.07.1,2.27-3.25,2.29-3.25-1.08-.1-2.28,3.25-2.29,3.25Z"/><path class="cls-10" d="M157.09,219.51a12.81,12.81,0,0,0,7,14.29c.7.34,2.68-3.05,2.29-3.24a12.44,12.44,0,0,1-7-13.6c.15-.8-.69,0-.87.25a5.59,5.59,0,0,0-1.45,2.3Z"/><path class="cls-10" d="M202.76,170c7-2.45,18.94-2.7,17.35,7.83,0-.16,2.22-1.89,2.39-3,1.63-10.71-10.51-10.59-17.71-8.07-1,.35-2,3.25-2,3.24Z"/><path class="cls-10" d="M204.29,212.63c4.63,5.31,11.19,8.19,16.41,12.83.37.32,2.84-2.75,2.3-3.24-5.22-4.64-11.78-7.52-16.42-12.83-.22-.26-2.85,2.6-2.29,3.24Z"/><path class="cls-10" d="M223.53,230.71c2.26,2.5,2.76,5.56,3.11,8.81.05.51,1.15-.77,1.21-.84.39-.48,1.26-1.47,1.18-2.16-.35-3.32-.89-6.48-3.2-9.06-.24-.26-2.86,2.62-2.3,3.25Z"/><path class="cls-10" d="M182.12,234.48c3.44-.4,7.89-1.62,10.73,1,.35.32,2.85-2.73,2.3-3.24-2.89-2.66-7.52-1.41-11-1-1,.11-2.27,3.28-2,3.26Z"/><path class="cls-10" d="M176.39,255.21c3.88,5.51,10,8.48,16.3,10.49.88.28,2.54-3.16,2.29-3.24-6.25-2-12.42-5-16.29-10.49-.12-.17-2.84,2.46-2.3,3.24Z"/><path class="cls-10" d="M199.58,266.68c3.24.51,6.14-.71,9.23-1.47.68-.17,1.32-1.3,1.65-1.83,0-.08.89-1.55.39-1.43-3,.75-5.83,2-9,1.49-1-.17-2.36,3.22-2.29,3.24Z"/><path class="cls-10" d="M249,154.67a26.7,26.7,0,0,1,14.19-.32c1,.21,2.43-3.21,2.29-3.24a27.22,27.22,0,0,0-14.44.31c-1,.33-2.07,3.27-2,3.25Z"/><path class="cls-10" d="M283.59,163.89c2,1.33,3.14,3.54,4.12,5.7.13.29,1.43-1.31,1.49-1.38.27-.39,1-1.34.8-1.86-1-2.15-2.08-4.36-4.12-5.7-.55-.36-2.77,2.92-2.29,3.24Z"/><path class="cls-10" d="M237,171.71c1.48,8.73,9.47,12.82,16.42,16.93.61.36,2.75-3,2.3-3.24-6.84-4-14.87-8.06-16.32-16.69,0-.17-2.57,2-2.4,3Z"/><path class="cls-10" d="M260.56,190a47.57,47.57,0,0,0,14.68.7c1-.1,2.29-3.28,2-3.25a46.85,46.85,0,0,1-14.42-.69c-1-.22-2.43,3.21-2.29,3.24Z"/><path class="cls-10" d="M283.22,212c6.32-1,13,2.2,16.8,7.22.16.21,2.84-2.51,2.29-3.24-3.89-5.11-10.64-8.23-17.06-7.23-1,.15-2.23,3.28-2,3.25Z"/><path class="cls-10" d="M283.93,259.93a38.93,38.93,0,0,0,5.89.88c.57.06,1.22-1,1.49-1.38.05-.07,1.13-1.83.81-1.86a37.84,37.84,0,0,1-5.9-.88c-.94-.23-2.47,3.19-2.29,3.24Z"/><path class="cls-10" d="M291.63,260.65l4.05-.63c.64-.09,1.34-1.34,1.64-1.82.07-.11.91-1.51.39-1.43l-4,.62c-.64.11-1.34,1.35-1.64,1.83-.07.1-.91,1.5-.39,1.43Z"/><path class="cls-10" d="M298,259.91a11.79,11.79,0,0,0,4.3-1.38A5.51,5.51,0,0,0,304,256.4c.13-.24.66-1.32-.05-.91a10.87,10.87,0,0,1-3.91,1.17c-.64.1-1.34,1.34-1.64,1.83-.07.1-.91,1.5-.39,1.42Z"/><path class="cls-10" d="M264.18,232.39a24.86,24.86,0,0,0,1.08,9.73c.1.32,2.68-2.11,2.4-3a25.06,25.06,0,0,1-1.09-9.73c0-.51-1.18.78-1.22.83a4.63,4.63,0,0,0-1.17,2.16Z"/><path class="cls-10" d="M130,221c-2,5.65,2.72,10.75,8.32,11.08,1.1.07,2.24-3.24,2.29-3.23-5.16-.32-10.22-5-8.28-10.4.29-.81-.76.13-.88.25A7.11,7.11,0,0,0,130,221Z"/><path class="cls-10" d="M65.92,220.86c.63,6.07.36,12.21,1.43,18.24,0,.18,2.57-2,2.39-3-1.06-6-.79-12.17-1.43-18.24,0-.11-2.5,2-2.39,3Z"/></g></g></svg>